# xmcd
#
# Track frame offsets: 
#        150
#        17705
#        41810
#        56280
#        80452
#        97895
#        114675
#        131692
#        152372
#        169417
#
# Disc length: 2478 seconds
#
# Revision: 2
# Processed by: cddbd v1.5PL3 Copyright (c) Steve Scherf et al.
# Submitted via: ExactAudioCopy v0.95a3
#
DISCID=7709ac0a
DTITLE=Michael James - Closer To The Fire
DYEAR=1994
DGENRE=Country
TTITLE0=Love Will
TTITLE1=It Wasn't His Child
TTITLE2=Family Tree
TTITLE3=Closer To The Fire
TTITLE4=The Kite
TTITLE5=Roll Back Again
TTITLE6=The Light You Shine On Me
TTITLE7=Handfuls Of Dust
TTITLE8=Weather The Storm
TTITLE9=Grant Me The Grace
EXTD=
EXTT0=
EXTT1=
EXTT2=
EXTT3=
EXTT4=
EXTT5=
EXTT6=
EXTT7=
EXTT8=
EXTT9=
PLAYORDER=
